<svg width="96" height="66" viewBox="0 0 96 66" fill="none" xmlns="http://www.w3.org/2000/svg">
<g clip-path="url(#clip0)">
<path d="M13.1521 61.761C13.1521 62.4503 13.4628 62.726 13.9461 62.726C14.3258 62.726 14.6365 62.6571 15.0162 62.5192V65.0696C14.3258 65.5521 13.3937 65.9313 12.0129 65.9313C10.3905 65.9313 9.11327 65.1041 8.66451 63.5876C7.90507 65.1386 6.38619 65.9313 4.28047 65.9313C1.69148 65.9657 0 64.6216 0 62.3814C0 59.831 1.82956 58.7281 4.72923 58.2456L8.45739 57.6252V57.4185C8.45739 56.3156 7.93959 55.6608 6.80043 55.6608C5.73031 55.6608 5.21251 56.35 5.00539 57.3151L0.552319 57.0049C0.966559 54.1098 3.14132 52.0764 7.11111 52.0764C10.6321 52.0764 13.1866 53.5929 13.1866 57.2806V61.761H13.1521ZM8.42287 59.9344L6.45523 60.279C5.28155 60.5203 4.62567 60.8649 4.62567 61.7266C4.62567 62.4158 5.14347 62.8639 5.97195 62.8639C7.35275 62.8639 8.42287 61.8644 8.42287 60.1412V59.9344Z" fill="#241C2D"/>
<path d="M20.1252 65.6555H16.4315V44.5286H21.2298V54.6957C21.8857 53.1103 23.37 52.0419 25.6138 52.0419C29.5146 52.0419 31.4822 55.1437 31.4822 59.0038C31.4822 62.9327 29.4801 65.9656 25.5103 65.9656C23.37 65.9656 21.7131 64.9317 20.9536 63.3119L20.1252 65.6555ZM21.2298 59.1416C21.2298 61.0716 22.2654 62.3124 23.8878 62.3124C25.7519 62.3124 26.6149 60.9683 26.6149 59.0382C26.6149 57.1427 25.7519 55.7985 23.8878 55.7985C22.2654 55.7985 21.2298 57.0393 21.2298 58.9348V59.1416Z" fill="#241C2D"/>
<path d="M40.0086 66.0002C35.6591 66.0002 32.7595 63.1396 32.7595 59.0383C32.7595 54.937 35.6591 52.0764 40.0086 52.0764C44.3236 52.0764 47.2578 54.937 47.2578 59.0383C47.2578 63.1741 44.3236 66.0002 40.0086 66.0002ZM40.0086 62.3814C41.6656 62.3814 42.425 61.0028 42.425 59.0383C42.425 57.0738 41.6656 55.6952 40.0086 55.6952C38.3172 55.6952 37.5923 57.0738 37.5923 59.0383C37.5923 61.0028 38.3172 62.3814 40.0086 62.3814Z" fill="#241C2D"/>
<path d="M57.8899 52.4209H62.6882V65.6554H57.8899V63.6564C57.165 65.1384 55.7152 66 53.7475 66C50.1229 66 49.0183 63.5185 49.0183 60.7614V52.4209H53.8166V59.4862C53.8166 61.2783 54.3344 62.2434 55.7842 62.2434C57.3031 62.2434 57.8899 60.9337 57.8899 58.9347V52.4209Z" fill="#241C2D"/>
<path d="M70.1445 65.6555H65.3463V52.4211H70.1445V54.42C70.8695 52.9725 72.4229 52.0764 74.425 52.0764C78.0496 52.0764 79.2233 54.5923 79.2233 57.3495V65.6555H74.425V58.6247C74.425 56.8326 73.9072 55.8675 72.4574 55.8675C70.8349 55.8675 70.1791 57.1772 70.1791 59.1762V65.6555H70.1445Z" fill="#241C2D"/>
<path d="M91.1672 63.4154C90.5458 64.9663 89.0269 66.0347 86.8177 66.0347C82.8824 66.0347 80.9493 62.9674 80.9493 59.0728C80.9493 55.1783 82.9169 52.111 86.8177 52.111C89.0269 52.111 90.5458 53.1794 91.1672 54.7648V44.5977H95.9655V65.7245H91.1672V63.4154ZM91.1672 58.9695C91.1672 57.0739 90.1316 55.8332 88.5091 55.8332C86.6105 55.8332 85.7821 57.1773 85.7821 59.0728C85.7821 61.0029 86.6105 62.347 88.5091 62.347C90.0971 62.347 91.1672 61.1063 91.1672 59.1762V58.9695Z" fill="#241C2D"/>
<path d="M96 39.7379H91.1672C91.1672 20.4721 75.4952 4.82507 56.1985 4.82507C36.9364 4.82507 21.2643 20.4721 21.2643 39.7379H16.4315C16.4315 17.8183 34.2783 0 56.1985 0C78.1532 0 96 17.8183 96 39.7379Z" fill="#241C2D"/>
</g>
<defs>
<clipPath id="clip0">
<rect width="96" height="66" fill="white"/>
</clipPath>
</defs>
</svg>
