<svg width="32" height="32" viewBox="0 0 32 32" fill="none" xmlns="http://www.w3.org/2000/svg">
<rect width="32" height="32" fill="#000000"/>
<path d="M24.0378 21.9425L21.0731 19.6357C20.9579 19.5461 20.8128 19.5041 20.6676 19.5185C20.5224 19.5328 20.3882 19.6022 20.2928 19.7126C19.8724 20.2025 19.3466 20.5907 18.7547 20.8482C18.1627 21.1057 17.5202 21.2257 16.8752 21.1992C15.6039 21.2132 14.3775 20.7298 13.4577 19.8521C12.5207 18.9806 12.065 17.8585 12.065 16.4346C12.065 15.0106 12.5235 13.954 13.4662 13.111C14.3869 12.2389 15.616 11.7677 16.8837 11.8009C18.3334 11.8009 19.4469 12.2737 20.3013 13.2505C20.3978 13.3616 20.5335 13.4311 20.68 13.4443C20.8265 13.4576 20.9725 13.4137 21.0873 13.3217L24.0036 10.9807C24.0632 10.933 24.1126 10.8738 24.1488 10.8066C24.185 10.7395 24.2074 10.6657 24.2146 10.5897C24.2217 10.5138 24.2136 10.4371 24.1906 10.3644C24.1675 10.2916 24.1301 10.2242 24.0805 10.1662C22.2949 8.06725 19.8713 7.00211 16.8837 7.00211C14.3431 6.94948 11.8809 7.8835 10.0145 9.60799C8.14905 11.3595 7.20068 13.6521 7.20068 16.426C7.20068 19.1999 8.16045 21.5523 10.0486 23.3238C11.9001 25.054 14.35 25.9992 16.8837 25.961C19.9111 25.961 22.349 24.8816 24.1261 22.757C24.1752 22.6985 24.212 22.6306 24.2344 22.5576C24.2567 22.4845 24.2641 22.4076 24.2561 22.3317C24.2481 22.2556 24.225 22.182 24.1879 22.1152C24.1509 22.0483 24.1008 21.9896 24.0407 21.9425H24.0378Z" fill="white"/>
</svg>
