<svg width="193" height="210" viewBox="0 0 193 210" fill="none" xmlns="http://www.w3.org/2000/svg">
<path fill-rule="evenodd" clip-rule="evenodd" d="M122 2.4C119.9 -0.0999994 116.4 -0.699999 113.6 0.900001L111 2.3L82.7 18.4L89.3 30L107.7 19.5L103.2 44.1L116.3 46.5L120.9 21.8L134.5 38L144.7 29.4L124.1 4.8H124L122 2.4ZM82.3 209.9C89.1 209.9 94.6 204.5 94.6 197.9C94.6 191.3 89.1 185.9 82.3 185.9C75.5 185.9 70 191.3 70 197.9C69.9 204.5 75.5 209.9 82.3 209.9ZM98.8 144L94.4 168.7L81.2 166.3L85.6 141.7L67.2 152.3L60.5 140.7L88.6 124.6L91.2 123.1C94 121.5 97.5 122.1 99.6 124.6L101.6 127L122.5 151.5L112.3 160.2L98.8 144ZM109.5 85L105.1 109.7L91.9 107.3L96.3 82.8L78 93.3L71.4 81.7L99.4 65.7V65.5H99.6L102.2 64C105 62.4 108.5 63 110.6 65.5L112.6 67.8L133.4 92.4L123.2 101.1L109.5 85ZM23.2 182.6H23.1L20.4 181.8C17.5 181 15.6 178.2 15.8 175.2L18.2 141.8L30.9 142.7L29.4 163L49.1 149.6L56.2 160.1L36.9 173.2L56.6 178.9L53.1 191.1L23.2 182.6ZM153.9 196.4L153 199.3C152.1 202.1 149.5 204 146.5 203.8L143.7 203.6L143.5 203.7L143.4 203.6L112.4 201.5L113.2 188.8L133.8 190.2L120.3 171.3L130.6 163.9L144.4 183.3L150.4 163.7L162.5 167.4L153.9 196.4ZM190.3 127.6L191.8 130.3C193.3 133 192.7 136.4 190.3 138.4L188.1 140.3V140.4H188L163.9 160.8L155.5 150.9L171.3 137.5L147.6 133.3L149.9 120.5L173.8 124.7L163.8 106.7L175.1 100.4L190.3 127.6ZM165.8 71.8L144.4 83.3L138.2 71.9L159.3 60.6L140 52.7L144.9 40.7L174.3 52.6L174.4 52.5L174.5 52.7L177.2 53.8C180.1 55 181.7 58 181.2 61L180.7 64L175.2 94.5L162.4 92.2L165.8 71.8ZM22.2 98.6L46 102.6L43.8 115.4L19.8 111.3L30 129.3L18.7 135.7L3.30003 108.6L1.80003 106C0.300025 103.3 0.900025 99.9 3.20003 97.9L5.40002 96V95.9H5.50003L29.3 75.4L37.8 85.3L22.2 98.6ZM58.1 43.2L73.9 60.8L64.2 69.5L48 51.5L44.3 72L31.5 69.7L37.1 39.3L37.7 36.2C38.2 33.2 40.8 31 43.8 30.9L46.6 30.8L46.7 30.7L46.8 30.8L78.6 29.5L79.1 42.5L58.1 43.2Z" fill="#111111"/>
</svg>
