<svg width="1512" height="1007" viewBox="0 0 1512 1007" fill="none" xmlns="http://www.w3.org/2000/svg">
<g clip-path="url(#clip0_918_4387)">
<rect width="1512" height="1007" fill="#010102"/>
<rect width="1512" height="1007" fill="url(#paint0_linear_918_4387)" fill-opacity="0.2"/>
<line x1="1512" y1="47.5" x2="-4.37115e-08" y2="47.4999" stroke="#16EE9D" stroke-opacity="0.05"/>
<line x1="1512" y1="95.5001" x2="-4.37115e-08" y2="95.5" stroke="#16EE9D" stroke-opacity="0.05"/>
<line x1="1512" y1="143.5" x2="-4.37115e-08" y2="143.5" stroke="#16EE9D" stroke-opacity="0.05"/>
<line x1="1512" y1="191.5" x2="-4.37115e-08" y2="191.5" stroke="#16EE9D" stroke-opacity="0.05"/>
<line x1="1512" y1="239.5" x2="-4.37115e-08" y2="239.5" stroke="#16EE9D" stroke-opacity="0.05"/>
<line x1="1512" y1="287.5" x2="-6.75093e-08" y2="287.5" stroke="#16EE9D" stroke-opacity="0.05"/>
<line x1="1512" y1="335.5" x2="-6.75093e-08" y2="335.5" stroke="#16EE9D" stroke-opacity="0.05"/>
<line x1="1512" y1="383.5" x2="-6.75093e-08" y2="383.5" stroke="#16EE9D" stroke-opacity="0.05"/>
<line x1="1512" y1="431.5" x2="-6.75093e-08" y2="431.5" stroke="#16EE9D" stroke-opacity="0.05"/>
<line x1="1512" y1="479.5" x2="-6.75093e-08" y2="479.5" stroke="#16EE9D" stroke-opacity="0.05"/>
<line x1="1512" y1="527.5" x2="-6.75093e-08" y2="527.5" stroke="#16EE9D" stroke-opacity="0.05"/>
<line x1="1512" y1="575.5" x2="-6.75093e-08" y2="575.5" stroke="#16EE9D" stroke-opacity="0.05"/>
<line x1="1512" y1="623.5" x2="-6.75093e-08" y2="623.5" stroke="#16EE9D" stroke-opacity="0.05"/>
<line x1="1512" y1="671.5" x2="-6.75093e-08" y2="671.5" stroke="#16EE9D" stroke-opacity="0.05"/>
<line x1="1512" y1="719.5" x2="-6.75093e-08" y2="719.5" stroke="#16EE9D" stroke-opacity="0.05"/>
<line x1="1512" y1="767.5" x2="-6.75093e-08" y2="767.5" stroke="#16EE9D" stroke-opacity="0.05"/>
<line x1="1512" y1="815.5" x2="-6.75093e-08" y2="815.5" stroke="#16EE9D" stroke-opacity="0.05"/>
<line x1="1512" y1="863.5" x2="-6.75093e-08" y2="863.5" stroke="#16EE9D" stroke-opacity="0.05"/>
<line x1="1512" y1="911.5" x2="-6.75093e-08" y2="911.5" stroke="#16EE9D" stroke-opacity="0.05"/>
<line x1="1512" y1="959.5" x2="-6.75093e-08" y2="959.5" stroke="#16EE9D" stroke-opacity="0.05"/>
<line x1="24.4985" y1="4.27514e-08" x2="24.4985" y2="1915" stroke="#16EE9D" stroke-opacity="0.05"/>
<line x1="72.4985" y1="4.27514e-08" x2="72.4985" y2="1915" stroke="#16EE9D" stroke-opacity="0.05"/>
<line x1="120.499" y1="4.27514e-08" x2="120.498" y2="1915" stroke="#16EE9D" stroke-opacity="0.05"/>
<line x1="168.499" y1="4.27514e-08" x2="168.498" y2="1915" stroke="#16EE9D" stroke-opacity="0.05"/>
<line x1="216.499" y1="4.27514e-08" x2="216.498" y2="1915" stroke="#16EE9D" stroke-opacity="0.05"/>
<line x1="264.499" y1="4.27514e-08" x2="264.499" y2="1915" stroke="#16EE9D" stroke-opacity="0.05"/>
<line x1="312.499" y1="4.27514e-08" x2="312.499" y2="1915" stroke="#16EE9D" stroke-opacity="0.05"/>
<line x1="360.499" y1="4.27514e-08" x2="360.499" y2="1915" stroke="#16EE9D" stroke-opacity="0.05"/>
<line x1="408.499" y1="4.27514e-08" x2="408.499" y2="1915" stroke="#16EE9D" stroke-opacity="0.05"/>
<line x1="456.499" y1="4.27514e-08" x2="456.499" y2="1915" stroke="#16EE9D" stroke-opacity="0.05"/>
<line x1="504.499" y1="4.27514e-08" x2="504.499" y2="1915" stroke="#16EE9D" stroke-opacity="0.05"/>
<line x1="552.499" y1="4.27514e-08" x2="552.498" y2="1915" stroke="#16EE9D" stroke-opacity="0.05"/>
<line x1="600.499" y1="4.27514e-08" x2="600.499" y2="1915" stroke="#16EE9D" stroke-opacity="0.05"/>
<line x1="648.499" y1="4.27514e-08" x2="648.499" y2="1915" stroke="#16EE9D" stroke-opacity="0.05"/>
<line x1="696.499" y1="4.27514e-08" x2="696.499" y2="1915" stroke="#16EE9D" stroke-opacity="0.05"/>
<line x1="744.499" y1="4.27514e-08" x2="744.499" y2="1915" stroke="#16EE9D" stroke-opacity="0.05"/>
<line x1="792.499" y1="4.27514e-08" x2="792.499" y2="1915" stroke="#16EE9D" stroke-opacity="0.05"/>
<line x1="840.499" y1="4.27514e-08" x2="840.499" y2="1915" stroke="#16EE9D" stroke-opacity="0.05"/>
<line x1="888.499" y1="4.27514e-08" x2="888.499" y2="1915" stroke="#16EE9D" stroke-opacity="0.05"/>
<line x1="936.499" y1="4.27514e-08" x2="936.499" y2="1915" stroke="#16EE9D" stroke-opacity="0.05"/>
<line x1="984.499" y1="4.27514e-08" x2="984.499" y2="1915" stroke="#16EE9D" stroke-opacity="0.05"/>
<line x1="1032.5" y1="2.18557e-08" x2="1032.5" y2="1915" stroke="#16EE9D" stroke-opacity="0.05"/>
<line x1="1080.5" y1="2.18557e-08" x2="1080.5" y2="1915" stroke="#16EE9D" stroke-opacity="0.05"/>
<line x1="1128.5" y1="2.18557e-08" x2="1128.5" y2="1915" stroke="#16EE9D" stroke-opacity="0.05"/>
<line x1="1176.5" y1="2.18557e-08" x2="1176.5" y2="1915" stroke="#16EE9D" stroke-opacity="0.05"/>
<line x1="1224.5" y1="2.18557e-08" x2="1224.5" y2="1915" stroke="#16EE9D" stroke-opacity="0.05"/>
<line x1="1272.5" y1="2.18557e-08" x2="1272.5" y2="1915" stroke="#16EE9D" stroke-opacity="0.05"/>
<line x1="1320.5" y1="2.18557e-08" x2="1320.5" y2="1915" stroke="#16EE9D" stroke-opacity="0.05"/>
<line x1="1368.5" y1="2.18557e-08" x2="1368.5" y2="1915" stroke="#16EE9D" stroke-opacity="0.05"/>
<line x1="1416.5" y1="3.30403e-08" x2="1416.5" y2="1915" stroke="#16EE9D" stroke-opacity="0.05"/>
<line x1="1464.5" y1="3.30403e-08" x2="1464.5" y2="1915" stroke="#16EE9D" stroke-opacity="0.05"/>
<rect width="1512" height="1007" transform="translate(1512 1007) rotate(180)" fill="url(#paint1_linear_918_4387)"/>
</g>
<defs>
<linearGradient id="paint0_linear_918_4387" x1="1162.5" y1="357.885" x2="513.446" y2="691.067" gradientUnits="userSpaceOnUse">
<stop stop-color="#16EE9D" stop-opacity="0.35"/>
<stop offset="1" stop-color="#16EE9D" stop-opacity="0"/>
</linearGradient>
<linearGradient id="paint1_linear_918_4387" x1="1577.5" y1="-911.5" x2="-0.000195994" y2="923" gradientUnits="userSpaceOnUse">
<stop/>
<stop offset="1" stop-opacity="0"/>
</linearGradient>
<clipPath id="clip0_918_4387">
<rect width="1512" height="1007" fill="white"/>
</clipPath>
</defs>
</svg>
