<svg width="1761" height="480" viewBox="0 0 1761 480" fill="none" xmlns="http://www.w3.org/2000/svg">
<path d="M437.327 234.854C405.742 208.151 358.16 197.446 315.988 228.619C314.047 230.031 311.636 227.619 313.106 225.737C323.105 212.856 334.692 198.976 344.044 185.036C353.572 170.744 367.806 160.51 384.216 155.51C471.558 129.043 445.326 0 445.326 0C445.326 0 310.401 8.70482 327.046 125.102C329.81 144.571 324.634 164.392 312.459 179.86C297.52 198.74 280.169 216.797 267.582 229.854C264.936 232.56 260.466 229.972 261.524 226.325C273.699 185.33 282.581 121.926 240.409 81.0489L181.063 31.7608L169.653 46.8178C135.716 91.577 145.656 154.687 190.474 188.565C216.177 207.975 227.822 229.09 225.999 252.263C224.882 266.144 218.588 279.142 209.178 289.435C191.474 308.845 174.946 329.666 162.183 353.78C160.419 357.133 155.302 355.839 155.478 352.016C157.301 312.197 153.478 222.443 86.4274 190.388L11.3775 161.392L5.55465 178.743C-13.3255 234.736 17.5532 294.552 73.4878 313.55C122.129 330.077 139.48 361.426 127.775 408.421C127.246 410.126 118.776 458.532 119.953 480H173.888C175.711 446.71 210.648 424.83 240.938 438.417C249.467 442.24 258.231 447.71 267.229 454.768C315.459 492.763 386.509 483.764 424.446 435.476L435.268 421.713L367.041 372.719C320.223 335.9 257.76 352.545 211.53 384.071C207.648 386.717 202.708 382.483 204.884 378.248C260.76 268.614 333.398 268.849 361.865 293.199C396.391 322.725 448.678 317.432 477.969 282.789L486.38 272.849L437.268 234.854H437.327Z" fill="#51C233"/>
<path fill-rule="evenodd" clip-rule="evenodd" d="M857.141 0H741.7H741.626C677.839 0 640.922 33.5674 640.922 98.0229V138.289H558.379V220.161H640.922V469.87H734.927V220.161H836.971V138.289H734.927V109.411C734.927 89.9101 745.645 81.8718 765.146 81.8718H857.141V0ZM1003.48 128.25C905.452 128.25 838.316 196.725 838.316 302.116H838.391C838.391 409.517 905.527 480.001 1006.9 480.001C1091.45 480.001 1142.44 437.056 1161.94 371.26H1065.92C1057.14 389.421 1037.71 402.148 1007.5 402.148C962.54 402.148 935.001 379.299 930.982 337.693H1165.96C1167.3 323.626 1167.97 311.494 1167.97 299.436C1167.97 194.045 1101.5 128.25 1003.48 128.25ZM1073.29 265.199V266.539H930.312C932.991 227.613 957.851 202.083 1003.48 202.083C1049.1 202.083 1073.29 227.613 1073.29 265.199ZM1200.73 138.188H1283.28V196.614C1291.32 159.028 1318.19 138.188 1360.46 138.188H1419.56V149.575C1419.56 188.501 1388 220.059 1349.07 220.059C1312.16 220.059 1294.67 238.89 1294.67 276.476V469.843H1200.66V138.188H1200.73ZM1535.28 138.298H1452.73H1452.66V469.879H1546.67V281.276C1546.67 239 1571.52 212.801 1609.11 212.801C1646.7 212.801 1666.87 234.311 1666.87 278.596V469.953H1760.87V268.548C1760.87 180.648 1709.82 128.25 1628.61 128.25C1590.36 128.25 1554.78 142.987 1535.28 171.865V138.298Z" fill="#FCFCFD"/>
</svg>
