<svg width="512" height="512" viewBox="0 0 512 512" fill="none" xmlns="http://www.w3.org/2000/svg">
<path d="M458.592 250.639C425.688 222.824 376.118 211.673 332.186 244.145C330.164 245.615 327.651 243.103 329.183 241.143C339.6 227.725 351.67 213.266 361.413 198.746C371.339 183.858 386.167 173.198 403.262 167.99C494.253 140.42 466.925 6 466.925 6C466.925 6 326.365 15.0675 343.705 136.315C346.585 156.594 341.193 177.241 328.509 193.354C312.946 213.021 294.87 231.83 281.758 245.431C279.001 248.25 274.344 245.554 275.447 241.755C288.13 199.052 297.383 133.007 253.45 90.4259L191.625 39.0842L179.738 54.7685C144.384 101.393 154.739 167.132 201.429 202.422C228.205 222.64 240.337 244.635 238.438 268.774C237.274 283.233 230.718 296.773 220.914 307.495C202.471 327.713 185.253 349.402 171.957 374.521C170.119 378.013 164.788 376.665 164.972 372.683C166.871 331.205 162.888 237.712 93.037 204.321L14.8527 174.117L8.78665 192.19C-10.882 250.517 21.2863 312.825 79.557 332.614C130.23 349.83 148.305 382.486 136.112 431.438C135.561 433.215 126.737 483.638 127.963 506H184.15C186.049 471.323 222.446 448.532 254.001 462.684C262.886 466.667 272.016 472.364 281.39 479.717C331.634 519.295 405.652 509.921 445.173 459.621L456.447 445.284L385.371 394.249C336.597 355.896 271.525 373.234 223.365 406.074C219.321 408.831 214.174 404.419 216.441 400.008C274.65 285.806 350.322 286.051 379.979 311.416C415.946 342.172 470.418 336.658 500.932 300.572L509.694 290.218L458.531 250.639H458.592Z" fill="#FBFFFA"/>
</svg>
