<?xml version="1.0" standalone="no"?>
<!DOCTYPE svg PUBLIC "-//W3C//DTD SVG 20010904//EN"
 "http://www.w3.org/TR/2001/REC-SVG-20010904/DTD/svg10.dtd">
<svg version="1.0" xmlns="http://www.w3.org/2000/svg"
 width="854.000000pt" height="854.000000pt" viewBox="0 0 854.000000 854.000000"
 preserveAspectRatio="xMidYMid meet">
<metadata>
Created by potrace 1.14, written by Peter Selinger 2001-2017
</metadata>
<g transform="translate(0.000000,854.000000) scale(0.100000,-0.100000)"
fill="#000000" stroke="none">
<path d="M5000 8400 c-11 -11 -20 -27 -20 -35 0 -12 -4 -13 -18 -6 -28 15 -61
2 -68 -26 -4 -15 -12 -22 -20 -19 -7 3 -23 -3 -36 -13 -21 -18 -23 -18 -49 2
-37 27 -77 17 -91 -23 -8 -26 -13 -28 -30 -19 -32 17 -69 -13 -66 -56 3 -43
-1 -47 -56 -55 -40 -6 -46 -4 -57 17 -17 31 -53 39 -84 19 -23 -15 -27 -15
-40 -2 -37 36 -85 24 -100 -25 -5 -14 -11 -17 -23 -10 -35 17 -72 -14 -72 -60
0 -28 -38 -79 -58 -79 -16 0 -72 -69 -72 -88 0 -12 -9 -18 -27 -20 -30 -2 -73
-43 -73 -68 0 -11 -6 -13 -20 -9 -41 13 -78 -4 -97 -45 -10 -22 -21 -40 -26
-40 -4 0 -17 11 -29 25 -25 29 -63 33 -89 9 -16 -14 -18 -14 -24 5 -7 24 -38
35 -62 23 -25 -14 -113 -3 -107 12 3 7 -5 24 -16 38 -16 20 -27 25 -47 22 -15
-3 -33 -10 -40 -15 -8 -8 -16 -5 -25 10 -18 30 -52 26 -81 -9 -25 -29 -77 -43
-77 -20 0 5 -10 12 -23 15 -19 5 -22 12 -20 38 5 44 -7 58 -50 60 -26 1 -37 7
-37 17 0 26 -30 60 -53 60 -13 0 -32 -7 -44 -15 -20 -14 -22 -14 -28 5 -3 11
-10 20 -15 20 -5 0 -15 3 -23 6 -9 3 -28 -8 -48 -31 -18 -19 -38 -34 -44 -31
-7 2 -18 0 -25 -4 -8 -5 -22 -4 -31 1 -10 5 -24 7 -31 4 -21 -8 -49 -61 -42
-78 4 -12 0 -14 -14 -10 -13 3 -32 -7 -58 -31 -22 -20 -50 -45 -62 -57 -20
-17 -23 -27 -19 -62 4 -37 0 -46 -30 -78 -35 -37 -48 -98 -25 -121 9 -9 8 -16
-2 -27 -24 -27 -29 -66 -11 -85 9 -9 21 -14 26 -11 5 4 9 -2 9 -11 0 -10 7
-25 15 -34 11 -12 12 -24 6 -47 -13 -44 11 -76 50 -71 16 3 27 2 24 0 -2 -3 1
-19 8 -36 11 -29 10 -33 -15 -57 -17 -17 -31 -23 -40 -18 -20 13 -64 11 -77
-4 -6 -8 -12 -24 -14 -38 -3 -17 -11 -25 -30 -27 -40 -5 -53 -27 -40 -73 11
-43 4 -54 -50 -77 -24 -10 -31 -9 -49 8 -29 27 -54 25 -85 -6 -18 -18 -29 -22
-36 -15 -30 30 -85 2 -89 -45 -2 -24 -6 -30 -19 -27 -9 3 -26 0 -38 -6 -21
-12 -22 -36 -5 -93 3 -10 1 -18 -5 -18 -6 0 -13 -11 -17 -25 -3 -14 -12 -25
-19 -25 -31 0 -33 -59 -2 -92 19 -20 20 -27 10 -37 -15 -14 -17 -50 -4 -70 6
-9 6 -22 0 -33 -12 -22 11 -82 37 -96 17 -10 17 -12 2 -29 -8 -10 -19 -29 -23
-42 l-7 -23 -31 30 c-30 28 -34 29 -61 18 -26 -10 -32 -10 -49 7 -11 11 -25
16 -35 12 -19 -8 -25 -9 -69 -7 -25 2 -33 7 -33 20 0 19 -29 52 -46 52 -5 0
-21 -6 -36 -14 -25 -13 -28 -13 -33 5 -9 27 -51 25 -70 -5 -19 -29 -50 -39
-66 -20 -6 8 -18 14 -25 14 -10 0 -14 13 -14 40 0 39 -1 40 -40 46 -30 5 -40
11 -40 25 0 10 -10 25 -21 33 -19 13 -26 13 -49 1 -24 -12 -28 -12 -43 6 -23
27 -41 24 -71 -12 -14 -17 -29 -28 -34 -25 -4 2 -14 1 -22 -4 -8 -5 -22 -5
-32 1 -14 8 -24 4 -43 -15 -14 -14 -25 -32 -25 -41 0 -8 -4 -15 -10 -15 -5 0
-25 -13 -43 -30 -19 -16 -39 -30 -44 -30 -18 0 -40 -55 -36 -92 3 -23 0 -38
-6 -38 -32 0 -67 -113 -39 -122 9 -3 8 -9 -5 -22 -25 -26 -21 -58 14 -97 25
-28 30 -40 26 -70 -6 -46 4 -63 39 -64 39 -2 51 -47 22 -80 -16 -19 -25 -22
-39 -14 -33 17 -68 1 -75 -36 -4 -25 -10 -32 -23 -28 -24 6 -53 -24 -46 -48 3
-10 8 -28 11 -39 4 -16 -2 -24 -32 -36 -35 -15 -40 -15 -66 1 -30 17 -63 13
-72 -10 -3 -10 -15 -12 -40 -8 -42 7 -66 -9 -66 -43 0 -20 -5 -24 -29 -24 -34
0 -46 -22 -35 -64 7 -29 -15 -86 -33 -86 -23 0 -20 -56 4 -82 9 -10 12 -22 7
-30 -11 -17 -12 -28 -3 -54 4 -11 3 -27 -1 -35 -12 -21 15 -77 43 -90 19 -8
26 -21 30 -53 6 -40 42 -86 70 -86 7 0 19 -15 27 -33 14 -31 18 -32 72 -32 46
0 60 -4 76 -22 24 -28 56 -29 74 -4 10 14 18 17 28 10 36 -22 74 -6 82 36 4
26 55 36 85 17 12 -8 28 -10 35 -6 23 14 71 4 96 -21 30 -30 58 -32 72 -6 8
17 14 18 39 8 25 -9 33 -8 50 8 12 10 21 26 21 37 0 13 7 18 25 18 28 0 59 39
50 62 -4 9 4 26 19 41 14 15 26 35 26 46 0 14 5 18 21 14 28 -8 35 -29 15 -48
-9 -9 -16 -23 -16 -30 0 -14 38 -55 50 -55 12 0 7 -35 -9 -60 -9 -14 -25 -25
-36 -25 -30 1 -55 -25 -55 -56 0 -21 -5 -28 -21 -31 -12 -2 -28 -12 -35 -23
-11 -17 -11 -25 1 -49 14 -26 13 -29 -5 -44 -17 -15 -18 -20 -7 -42 7 -13 22
-29 33 -35 11 -6 19 -15 17 -22 -3 -7 0 -20 6 -31 7 -13 7 -22 -2 -31 -9 -10
-6 -18 15 -36 15 -13 37 -22 47 -20 14 3 18 -1 14 -11 -3 -8 8 -26 26 -43 17
-16 31 -32 31 -36 0 -4 9 -16 21 -26 15 -13 33 -17 65 -14 33 3 47 0 51 -11
13 -34 96 -57 120 -33 8 8 18 6 37 -6 22 -14 32 -16 51 -7 14 7 25 19 25 27 0
9 4 14 9 11 5 -3 14 1 21 9 9 10 24 14 43 11 43 -7 69 10 65 42 -2 21 2 27 21
32 36 8 48 33 34 70 -6 16 -9 30 -7 30 9 0 49 -46 51 -59 8 -58 13 -64 48 -58
28 5 36 1 50 -19 19 -29 48 -31 75 -4 19 19 22 19 43 5 13 -8 27 -12 30 -8 4
3 7 -3 7 -13 0 -23 18 -44 37 -44 21 0 56 -41 59 -68 4 -39 28 -58 57 -45 21
10 26 8 37 -13 16 -28 60 -33 80 -9 8 9 20 13 29 10 45 -18 62 -15 78 13 11
19 25 30 40 30 13 -1 32 7 43 17 18 16 20 16 35 1 22 -22 62 -20 77 3 11 17
14 18 34 4 29 -19 62 -9 74 22 6 15 17 22 35 22 28 0 65 28 65 49 0 23 42 -3
78 -49 133 -166 298 -304 497 -418 216 -123 297 -191 353 -297 68 -128 107
-345 106 -592 0 -219 -23 -360 -77 -467 -74 -146 -146 -436 -171 -688 -24
-233 -27 -256 -41 -325 -48 -222 -142 -466 -233 -605 -88 -134 -150 -172 -522
-319 -243 -97 -373 -159 -411 -197 -29 -29 -50 -82 -39 -100 15 -24 91 -14
256 36 223 67 274 74 449 70 175 -4 286 -27 380 -79 213 -117 375 -137 612
-77 201 51 287 47 496 -24 146 -49 175 -50 302 -16 22 6 43 9 46 8 3 -1 12 3
20 9 20 16 254 89 379 118 173 41 278 55 385 51 123 -4 132 -6 275 -56 131
-46 159 -52 177 -37 20 16 16 34 -18 73 -56 64 -257 148 -409 171 -203 31
-312 74 -376 147 -22 25 -62 89 -89 143 -40 79 -60 106 -99 135 -39 30 -58 56
-102 141 -144 283 -233 596 -260 917 -13 154 -8 366 11 488 3 21 12 81 21 133
39 243 53 400 69 755 12 272 22 383 49 501 8 39 49 128 78 170 45 68 95 102
262 178 172 79 356 209 518 365 78 75 108 97 118 91 18 -12 51 -2 66 18 9 13
14 12 40 -1 17 -9 36 -28 42 -42 8 -17 18 -25 26 -22 8 3 17 -1 20 -9 3 -8 12
-14 19 -14 9 0 17 -15 21 -40 7 -43 32 -65 57 -49 19 12 29 11 29 -2 0 -17 27
-39 49 -39 12 0 29 8 39 18 15 15 20 16 44 4 30 -15 63 -2 71 29 3 10 15 17
32 17 17 -1 34 8 44 21 l16 21 18 -20 c21 -25 51 -26 76 -1 17 17 22 17 39 6
25 -18 57 -9 71 21 14 31 28 30 57 -1 18 -19 21 -31 15 -48 -13 -33 4 -67 38
-73 21 -4 27 -11 24 -24 -9 -36 30 -53 86 -37 11 3 56 -26 69 -44 14 -20 60
-17 78 6 6 8 15 10 23 6 7 -5 43 -8 79 -8 63 0 68 1 99 35 24 26 41 35 69 37
42 2 90 46 79 72 -3 10 -1 13 9 10 8 -3 26 3 40 14 22 17 25 26 22 68 -3 43 0
52 26 76 17 16 27 34 24 42 -4 8 -6 19 -6 24 0 5 -7 9 -16 9 -12 0 -14 5 -9
18 18 40 11 67 -22 82 -36 17 -50 64 -27 91 16 18 19 49 4 49 -6 0 -6 9 0 25
5 14 6 25 2 25 -4 1 2 9 14 18 12 10 26 28 33 40 10 18 8 25 -8 41 -19 19 -19
23 -5 65 12 35 20 44 34 41 11 -2 22 1 26 6 4 6 11 6 19 -1 27 -22 88 40 70
71 -4 5 0 6 8 3 8 -3 30 8 48 25 19 17 43 37 53 45 15 10 20 27 22 63 1 39 7
55 28 76 27 27 37 89 16 102 -7 4 -5 14 5 28 23 32 18 56 -17 93 -27 27 -32
39 -30 72 4 42 -14 66 -45 60 -13 -2 -21 6 -28 27 -7 22 -17 31 -38 33 -16 2
-34 -2 -42 -8 -23 -19 -61 27 -64 78 -1 6 -8 12 -16 12 -19 0 -47 61 -41 92 6
35 -7 51 -43 51 -16 0 -30 3 -29 6 5 45 -38 75 -74 52 -16 -10 -23 -10 -36 2
-32 27 -52 28 -75 3 -18 -19 -25 -21 -40 -12 -13 8 -24 7 -47 -6 -25 -14 -30
-15 -30 -3 0 18 -39 45 -60 42 -8 -2 -21 -6 -28 -11 -8 -5 -20 -2 -30 7 -31
26 -50 27 -75 1 -16 -15 -28 -21 -32 -14 -10 16 -40 12 -68 -10 l-26 -21 14
27 c8 15 11 40 8 56 -4 21 0 32 16 45 11 10 22 27 24 39 1 11 12 33 24 48 23
29 23 68 -1 111 -14 28 -14 36 1 67 19 40 16 73 -11 105 -17 21 -22 36 -19 60
4 23 -1 37 -16 52 -12 12 -27 19 -33 15 -6 -4 -16 0 -22 8 -6 8 -19 17 -28 21
-10 3 -18 17 -18 30 0 22 -32 67 -48 67 -4 0 -18 -7 -30 -16 -12 -8 -22 -11
-22 -6 0 16 -41 52 -59 52 -10 0 -30 -11 -44 -24 -24 -22 -30 -23 -62 -14 -19
6 -35 17 -35 24 0 17 -29 46 -40 39 -9 -6 -74 34 -78 48 -1 4 -2 16 -2 27 0
30 -43 54 -70 40 -18 -10 -25 -8 -45 14 -30 32 -46 33 -83 1 -26 -22 -32 -23
-61 -12 -30 11 -34 10 -52 -12 -10 -13 -19 -29 -19 -37 0 -8 -10 -14 -25 -14
-14 0 -34 -9 -45 -20 -11 -11 -26 -20 -33 -20 -20 0 -49 63 -42 92 10 38 -10
68 -44 68 -23 0 -31 6 -40 30 -13 38 -47 52 -81 35 -22 -12 -28 -10 -53 10
-15 13 -27 34 -27 46 0 12 -18 39 -39 61 -33 33 -38 43 -32 66 15 60 -10 92
-61 76 -13 -3 -20 -3 -16 1 3 4 2 20 -4 36 -12 35 -49 47 -84 29 -21 -12 -27
-11 -47 8 -30 28 -49 28 -78 -2 -19 -19 -27 -22 -45 -14 -16 8 -30 6 -54 -5
-30 -15 -31 -15 -39 6 -8 20 -5 22 25 25 37 4 84 50 80 79 -4 23 14 35 31 21
9 -7 17 -7 28 2 13 11 18 10 28 -4 16 -22 57 -8 80 28 21 32 21 55 1 85 -14
19 -14 26 -3 47 10 19 10 32 2 54 -9 23 -8 32 3 41 20 16 17 36 -7 60 -13 13
-18 27 -14 39 9 29 -10 57 -44 63 -20 4 -29 11 -25 20 9 24 -23 41 -59 30 -50
-14 -83 7 -91 58 -7 46 -52 99 -85 99 -11 0 -31 -4 -44 -9 -21 -8 -28 -5 -46
20 -17 23 -29 29 -60 29 -31 0 -40 5 -49 25 -13 29 -61 35 -82 11 -10 -13 -16
-12 -43 5 -40 24 -52 24 -77 -1z m-211 -3600 c-12 -3 -28 -14 -35 -25 -11 -17
-11 -25 0 -47 12 -23 12 -28 -6 -46 -16 -16 -18 -23 -9 -41 6 -11 20 -25 31
-31 11 -6 20 -19 20 -30 0 -10 5 -22 10 -25 7 -4 6 -14 -1 -27 -10 -19 -8 -25
15 -44 14 -13 33 -21 41 -18 10 4 15 0 15 -10 0 -9 16 -32 35 -52 19 -19 35
-38 35 -43 0 -15 48 -30 80 -25 24 4 37 0 57 -20 33 -33 67 -42 100 -27 25 12
26 11 20 -22 -11 -67 -81 -158 -205 -264 -86 -75 -105 -85 -136 -77 -79 20
-211 230 -232 369 -9 61 -10 101 -1 186 6 61 53 288 61 296 2 2 16 6 32 9 15
3 34 14 41 24 12 17 17 18 34 7 19 -12 19 -12 -2 -17z m-275 7 c3 3 15 -6 27
-20 11 -15 27 -27 35 -27 11 0 13 -7 8 -27 -13 -58 -45 -139 -63 -163 -38 -52
-93 -29 -135 57 -10 21 -22 45 -26 53 -22 45 -21 78 4 104 14 16 27 23 31 16
9 -14 42 -13 57 4 9 9 20 11 34 5 12 -4 25 -5 28 -2z m1586 -35 c0 -18 -34
-52 -167 -163 -186 -156 -395 -279 -475 -279 -36 0 -38 2 -28 20 6 11 10 28 8
37 -2 11 6 19 21 23 35 8 48 33 35 67 -9 23 -7 33 9 56 10 15 23 25 28 22 13
-9 49 14 49 31 0 8 4 12 10 9 5 -3 15 3 21 13 10 16 18 18 42 11 39 -11 65 4
69 38 3 29 7 30 60 19 17 -4 32 -1 41 9 13 13 16 13 27 0 7 -8 28 -15 47 -15
26 0 36 5 40 20 3 11 12 20 19 20 8 0 17 6 20 14 4 10 16 12 43 9 42 -6 67 14
58 46 -3 14 -1 18 9 14 8 -3 14 -12 14 -21z m-1959 -13 c15 -7 24 -7 34 1 10
9 16 3 25 -27 26 -82 103 -225 149 -275 62 -68 71 -87 115 -237 37 -125 71
-202 112 -256 60 -80 17 -127 -111 -120 -212 11 -405 155 -544 408 -35 64 -87
196 -79 201 48 30 60 41 68 62 5 13 20 28 33 33 37 14 53 39 39 61 -7 12 -8
21 -2 25 5 3 6 13 3 21 -9 23 45 74 79 74 17 0 31 7 38 20 12 23 15 24 41 9z
m-667 -360 c-2 -4 3 -13 12 -20 13 -10 21 -10 47 0 28 11 71 14 167 12 21 -1
29 -10 48 -59 30 -79 29 -98 -10 -118 -83 -43 -248 -2 -335 82 -35 35 -36 37
-18 50 10 8 22 14 26 14 9 0 29 57 22 64 -3 3 6 0 20 -7 14 -6 23 -15 21 -18z"/>
</g>
</svg>
