<svg width="164" height="164" viewBox="0 0 164 164" fill="none" xmlns="http://www.w3.org/2000/svg">
<path d="M82 0H54.6667V27.3333H82V0Z" fill="black"/>
<path d="M136.666 0H109.333V27.3333H136.666V0Z" fill="black"/>
<path d="M54.6666 27.3333H27.3333V54.6666H54.6666V27.3333Z" fill="black"/>
<path d="M109.333 27.3333H82V54.6666H109.333V27.3333Z" fill="black"/>
<path d="M164 27.3333H136.667V54.6666H164V27.3333Z" fill="black"/>
<path d="M27.3333 54.6667H0V82H27.3333V54.6667Z" fill="black"/>
<path d="M82 54.6667H54.6667V82H82V54.6667Z" fill="black"/>
<path d="M27.3333 82H0V109.333H27.3333V82Z" fill="black"/>
<path d="M82 82H54.6667V109.333H82V82Z" fill="black"/>
<path d="M54.6666 109.333H27.3333V136.666H54.6666V109.333Z" fill="black"/>
<path d="M109.333 109.333H82V136.666H109.333V109.333Z" fill="black"/>
<path d="M164 109.333H136.667V136.666H164V109.333Z" fill="black"/>
<path d="M82 136.667H54.6667V164H82V136.667Z" fill="black"/>
<path d="M136.666 136.667H109.333V164H136.666V136.667Z" fill="black"/>
</svg>
