<svg width="32" height="32" viewBox="0 0 32 32" fill="none" xmlns="http://www.w3.org/2000/svg">
<g clip-path="url(#clip0_93_14)">
<path d="M32 0H0V32H32V0Z" fill=""/>
<path d="M14.0531 4L16 8.22598L17.9392 4H19.8938L15.9846 12.0425L12.1062 4H14.0531Z" fill="black"/>
<path d="M23.1086 6.13807L21.4971 10.5029L25.8565 8.88592L27.2386 10.268L18.7875 13.1907L21.732 4.76141L23.1086 6.13807Z" fill="black"/>
<path d="M28 14.0531L23.774 16L28 17.9392V19.8938L19.9575 15.9845L28 12.1062V14.0531Z" fill="black"/>
<path d="M25.8619 23.1086L21.497 21.4971L23.1141 25.8565L21.7319 27.2386L18.8093 18.7875L27.2386 21.732L25.8619 23.1086Z" fill="black"/>
<path d="M17.9469 28L16 23.774L14.0608 28H12.1062L16.0155 19.9575L19.8938 28H17.9469Z" fill="black"/>
<path d="M8.89132 25.8619L10.5029 21.4971L6.14347 23.1141L4.76135 21.732L13.2125 18.8093L10.268 27.2386L8.89132 25.8619Z" fill="black"/>
<path d="M4 17.9469L8.22598 16L4 14.0608V12.1062L12.0425 16.0155L4 19.8938V17.9469Z" fill="black"/>
<path d="M6.138 8.89138L10.5029 10.5029L8.88585 6.14353L10.268 4.76141L13.1907 13.2125L4.76135 10.268L6.138 8.89138Z" fill="black"/>
</g>
<defs>
<clipPath id="clip0_93_14">
<rect width="32" height="32" fill=""/>
</clipPath>
</defs>
</svg>
