<svg xmlns="http://www.w3.org/2000/svg" viewBox="0 0 480 512"><!--!Font Awesome Free 6.7.2 by @fontawesome - https://fontawesome.com License - https://fontawesome.com/license/free Copyright 2025 Fonticons, Inc.--><path d="M455.9 23.2C429.2 30 387.8 51.7 341.4 90.7A206 206 0 0 0 240 64C125.1 64 32 157.1 32 272s93.1 208 208 208 208-93.1 208-208a207.3 207.3 0 0 0 -58.8-144.8 155.4 155.4 0 0 0 -17 27.4A176.2 176.2 0 0 1 417.1 272c0 97.7-79.4 177.1-177.1 177.1a175.8 175.8 0 0 1 -87.6-23.4c82.9-107.3 150.8-37.8 184.3-226.7 5.8-32.6 28-94.3 126.2-160.2C471 33.5 465.4 20.8 455.9 23.2zM125 406.4A176.7 176.7 0 0 1 62.9 272C62.9 174.3 142.4 94.9 240 94.9a174 174 0 0 1 76.6 17.8C250.6 174.8 189.8 265.5 125 406.4z"/></svg>